<svg xmlns="http://www.w3.org/2000/svg" viewBox="0 0 256 256" role="img" aria-label="Soudust">
  <rect width="256" height="256" rx="54" fill="#10130c"/>
  <rect x="13" y="13" width="230" height="230" rx="46" fill="none" stroke="#d8a44a" stroke-width="5" opacity="0.72"/>
  <g transform="translate(128 118)">
    <g fill="#d8a44a">
      <polygon points="0,-100 11,-74 -11,-74"/>
      <polygon points="0,-100 11,-74 -11,-74" transform="rotate(20)"/>
      <polygon points="0,-100 11,-74 -11,-74" transform="rotate(40)"/>
      <polygon points="0,-100 11,-74 -11,-74" transform="rotate(60)"/>
      <polygon points="0,-100 11,-74 -11,-74" transform="rotate(80)"/>
      <polygon points="0,-100 11,-74 -11,-74" transform="rotate(100)"/>
      <polygon points="0,-100 11,-74 -11,-74" transform="rotate(120)"/>
      <polygon points="0,-100 11,-74 -11,-74" transform="rotate(140)"/>
      <polygon points="0,-100 11,-74 -11,-74" transform="rotate(160)"/>
      <polygon points="0,-100 11,-74 -11,-74" transform="rotate(180)"/>
      <polygon points="0,-100 11,-74 -11,-74" transform="rotate(200)"/>
      <polygon points="0,-100 11,-74 -11,-74" transform="rotate(220)"/>
      <polygon points="0,-100 11,-74 -11,-74" transform="rotate(240)"/>
      <polygon points="0,-100 11,-74 -11,-74" transform="rotate(260)"/>
      <polygon points="0,-100 11,-74 -11,-74" transform="rotate(280)"/>
      <polygon points="0,-100 11,-74 -11,-74" transform="rotate(300)"/>
      <polygon points="0,-100 11,-74 -11,-74" transform="rotate(320)"/>
      <polygon points="0,-100 11,-74 -11,-74" transform="rotate(340)"/>
    </g>
    <circle r="78" fill="#d8a44a"/>
    <circle r="59" fill="#10130c"/>
    <circle r="15" fill="#c8f564"/>
    <path d="M-36 -13c20 -19 51 -18 70 4" fill="none" stroke="#d8a44a" stroke-width="5" stroke-linecap="round"/>
    <path d="M-34 18c17 13 45 14 65 -1" fill="none" stroke="#d8a44a" stroke-width="5" stroke-linecap="round"/>
    <path d="M-5 -48c20 16 23 40 8 63" fill="none" stroke="#d8a44a" stroke-width="4" stroke-linecap="round" opacity="0.8"/>
  </g>
  <text
    x="128"
    y="218"
    fill="#f3f3ee"
    font-family="Syne, Arial Black, Arial, sans-serif"
    font-size="34"
    font-weight="800"
    letter-spacing="-1.5"
    text-anchor="middle">soudust</text>
</svg>
