<svg xmlns="http://www.w3.org/2000/svg" viewBox="0 0 760 240" role="img" aria-label="Soudust custom woodworking">
  <rect width="760" height="240" rx="28" fill="#10130c"/>
  <g transform="translate(124 120)">
    <g fill="#d8a44a">
      <polygon points="0,-82 9,-60 -9,-60"/>
      <polygon points="0,-82 9,-60 -9,-60" transform="rotate(20)"/>
      <polygon points="0,-82 9,-60 -9,-60" transform="rotate(40)"/>
      <polygon points="0,-82 9,-60 -9,-60" transform="rotate(60)"/>
      <polygon points="0,-82 9,-60 -9,-60" transform="rotate(80)"/>
      <polygon points="0,-82 9,-60 -9,-60" transform="rotate(100)"/>
      <polygon points="0,-82 9,-60 -9,-60" transform="rotate(120)"/>
      <polygon points="0,-82 9,-60 -9,-60" transform="rotate(140)"/>
      <polygon points="0,-82 9,-60 -9,-60" transform="rotate(160)"/>
      <polygon points="0,-82 9,-60 -9,-60" transform="rotate(180)"/>
      <polygon points="0,-82 9,-60 -9,-60" transform="rotate(200)"/>
      <polygon points="0,-82 9,-60 -9,-60" transform="rotate(220)"/>
      <polygon points="0,-82 9,-60 -9,-60" transform="rotate(240)"/>
      <polygon points="0,-82 9,-60 -9,-60" transform="rotate(260)"/>
      <polygon points="0,-82 9,-60 -9,-60" transform="rotate(280)"/>
      <polygon points="0,-82 9,-60 -9,-60" transform="rotate(300)"/>
      <polygon points="0,-82 9,-60 -9,-60" transform="rotate(320)"/>
      <polygon points="0,-82 9,-60 -9,-60" transform="rotate(340)"/>
    </g>
    <circle r="64" fill="#d8a44a"/>
    <circle r="47" fill="#10130c"/>
    <circle r="12" fill="#c8f564"/>
    <path d="M-30 -11c18 -16 42 -15 57 3" fill="none" stroke="#d8a44a" stroke-width="4.5" stroke-linecap="round"/>
    <path d="M-27 14c15 11 36 12 53 -1" fill="none" stroke="#d8a44a" stroke-width="4.5" stroke-linecap="round"/>
    <path d="M-4 -37c17 13 19 31 7 49" fill="none" stroke="#d8a44a" stroke-width="3.5" stroke-linecap="round" opacity="0.8"/>
  </g>
  <g transform="translate(228 74)">
    <text
      x="0"
      y="58"
      fill="#f3f3ee"
      font-family="Syne, Arial Black, Arial, sans-serif"
      font-size="78"
      font-weight="800"
      letter-spacing="-4">soudust</text>
    <path d="M2 91h360" stroke="#d8a44a" stroke-width="4" stroke-linecap="round"/>
    <text
      x="2"
      y="125"
      fill="#c8f564"
      font-family="DM Mono, Menlo, Consolas, monospace"
      font-size="19"
      letter-spacing="4">CUSTOM WOODWORKING</text>
  </g>
</svg>
