<svg xmlns="http://www.w3.org/2000/svg" viewBox="0 0 256 256" role="img" aria-label="Soudust">
  <rect width="256" height="256" rx="54" fill="#fbf7ed"/>
  <g transform="translate(128 124)">
    <path d="M-103 1a104 104 0 0 1 206 0" fill="none" stroke="#3a2413" stroke-width="13" stroke-linecap="round"/>
    <path d="M-101 37a104 104 0 0 0 202 0" fill="none" stroke="#3a2413" stroke-width="13" stroke-linecap="round"/>
    <path d="M-88 0a88 88 0 0 1 176 0" fill="none" stroke="#c99d6c" stroke-width="4" stroke-linecap="round"/>
    <path d="M-88 36a88 88 0 0 0 176 0" fill="none" stroke="#c99d6c" stroke-width="4" stroke-linecap="round"/>
    <path d="M-71 0a71 71 0 0 1 142 0" fill="none" stroke="#c99d6c" stroke-width="2.5" stroke-linecap="round"/>
    <path d="M-71 36a71 71 0 0 0 142 0" fill="none" stroke="#c99d6c" stroke-width="2.5" stroke-linecap="round"/>
    <path d="M-54 0a54 54 0 0 1 108 0" fill="none" stroke="#c99d6c" stroke-width="2" stroke-linecap="round"/>
    <path d="M-54 36a54 54 0 0 0 108 0" fill="none" stroke="#c99d6c" stroke-width="2" stroke-linecap="round"/>
  </g>
  <g transform="translate(128 129)">
    <g fill="#3a2413">
      <polygon points="0,-40 5,-29 -5,-29"/>
      <polygon points="0,-40 5,-29 -5,-29" transform="rotate(30)"/>
      <polygon points="0,-40 5,-29 -5,-29" transform="rotate(60)"/>
      <polygon points="0,-40 5,-29 -5,-29" transform="rotate(90)"/>
      <polygon points="0,-40 5,-29 -5,-29" transform="rotate(120)"/>
      <polygon points="0,-40 5,-29 -5,-29" transform="rotate(150)"/>
      <polygon points="0,-40 5,-29 -5,-29" transform="rotate(180)"/>
      <polygon points="0,-40 5,-29 -5,-29" transform="rotate(210)"/>
      <polygon points="0,-40 5,-29 -5,-29" transform="rotate(240)"/>
      <polygon points="0,-40 5,-29 -5,-29" transform="rotate(270)"/>
      <polygon points="0,-40 5,-29 -5,-29" transform="rotate(300)"/>
      <polygon points="0,-40 5,-29 -5,-29" transform="rotate(330)"/>
    </g>
    <circle r="31" fill="#3a2413"/>
    <circle r="22" fill="#fbf7ed"/>
    <circle r="5" fill="#c99d6c"/>
    <circle r="13" fill="none" stroke="#c99d6c" stroke-width="3"/>
  </g>
  <text x="128" y="219" fill="#3a2413" font-family="Georgia, Times New Roman, serif" font-size="33" font-weight="800" letter-spacing="5" text-anchor="middle">SD</text>
</svg>
